<?xml version="1.0" encoding="UTF-8"?>
<svg width="219px" height="34px" viewBox="0 0 219 34" version="1.1" xmlns="http://www.w3.org/2000/svg" xmlns:xlink="http://www.w3.org/1999/xlink">
    <!-- Generator: Sketch 63.1 (92452) - https://sketch.com -->
    <title>Stratiphy</title>
    <desc>Created with Sketch.</desc>
    <g id="Page-1" stroke="none" stroke-width="1" fill="none" fill-rule="evenodd">
        <g id="Desktop-HD" transform="translate(-305.000000, -278.000000)" fill-rule="nonzero">
            <g id="Stratiphy" transform="translate(305.740000, 278.288000)">
                <path d="M13.896,26.712 L13.896,6.264 L21.96,6.264 L21.96,1.512 L0,1.512 L0,6.264 L8.064,6.264 L8.064,26.712 L13.896,26.712 Z M30.312,26.712 L30.312,17.568 C30.312,15.768 30.768,14.418 31.68,13.518 C32.592,12.618 33.852,12.168 35.46,12.168 C35.676,12.168 36.096,12.192 36.72,12.24 L36.72,12.24 L36.72,7.056 C35.232,7.056 33.918,7.296 32.778,7.776 C31.638,8.256 30.732,8.964 30.06,9.9 L30.06,9.9 L30.06,7.344 L24.696,7.344 L24.696,26.712 L30.312,26.712 Z M46.188,27 C49.068,27 51.036,26.1 52.092,24.3 L52.092,24.3 L52.092,26.712 L57.348,26.712 L57.348,15.66 C57.348,12.78 56.544,10.626 54.936,9.198 C53.328,7.77 51.024,7.056 48.024,7.056 C46.464,7.056 44.946,7.26 43.47,7.668 C41.994,8.076 40.728,8.652 39.672,9.396 L39.672,9.396 L41.688,13.32 C42.384,12.768 43.23,12.33 44.226,12.006 C45.222,11.682 46.236,11.52 47.268,11.52 C48.756,11.52 49.872,11.85 50.616,12.51 C51.36,13.17 51.732,14.112 51.732,15.336 L51.732,15.336 L47.268,15.336 C44.436,15.336 42.342,15.852 40.986,16.884 C39.63,17.916 38.952,19.332 38.952,21.132 C38.952,22.26 39.24,23.268 39.816,24.156 C40.392,25.044 41.226,25.74 42.318,26.244 C43.41,26.748 44.7,27 46.188,27 Z M47.592,23.22 C46.608,23.22 45.834,23.01 45.27,22.59 C44.706,22.17 44.424,21.6 44.424,20.88 C44.424,19.368 45.576,18.612 47.88,18.612 L47.88,18.612 L51.732,18.612 L51.732,20.592 C51.42,21.456 50.892,22.11 50.148,22.554 C49.404,22.998 48.552,23.22 47.592,23.22 Z M70.74,27 C73.38,27 75.396,26.16 76.788,24.48 L76.788,24.48 L76.788,26.712 L82.152,26.712 L82.152,0 L76.536,0 L76.536,9.396 C75.144,7.836 73.212,7.056 70.74,7.056 C68.916,7.056 67.266,7.464 65.79,8.28 C64.314,9.096 63.156,10.26 62.316,11.772 C61.476,13.284 61.056,15.036 61.056,17.028 C61.056,19.02 61.476,20.772 62.316,22.284 C63.156,23.796 64.314,24.96 65.79,25.776 C67.266,26.592 68.916,27 70.74,27 Z M71.712,22.392 C70.272,22.392 69.084,21.906 68.148,20.934 C67.212,19.962 66.744,18.66 66.744,17.028 C66.744,15.396 67.212,14.094 68.148,13.122 C69.084,12.15 70.272,11.664 71.712,11.664 C73.128,11.664 74.304,12.15 75.24,13.122 C76.176,14.094 76.644,15.396 76.644,17.028 C76.644,18.66 76.176,19.962 75.24,20.934 C74.304,21.906 73.128,22.392 71.712,22.392 Z M96.948,27 C100.452,27 103.116,25.956 104.94,23.868 L104.94,23.868 L101.952,20.628 C101.28,21.276 100.554,21.75 99.774,22.05 C98.994,22.35 98.1,22.5 97.092,22.5 C95.628,22.5 94.404,22.152 93.42,21.456 C92.436,20.76 91.812,19.812 91.548,18.612 L91.548,18.612 L106.2,18.612 C106.272,17.676 106.308,17.172 106.308,17.1 C106.308,15.084 105.87,13.314 104.994,11.79 C104.118,10.266 102.912,9.096 101.376,8.28 C99.84,7.464 98.124,7.056 96.228,7.056 C94.284,7.056 92.526,7.482 90.954,8.334 C89.382,9.186 88.146,10.374 87.246,11.898 C86.346,13.422 85.896,15.132 85.896,17.028 C85.896,18.948 86.352,20.664 87.264,22.176 C88.176,23.688 89.472,24.87 91.152,25.722 C92.832,26.574 94.764,27 96.948,27 Z M101.016,15.336 L91.476,15.336 C91.668,14.088 92.196,13.104 93.06,12.384 C93.924,11.664 94.992,11.304 96.264,11.304 C97.512,11.304 98.568,11.67 99.432,12.402 C100.296,13.134 100.824,14.112 101.016,15.336 L101.016,15.336 Z" id="Trade" fill="#FFCA28"></path>
                <path d="M122.508,27.144 C124.692,27.144 126.672,26.76 128.448,25.992 C130.224,25.224 131.712,24.108 132.912,22.644 L132.912,22.644 L129.168,19.188 C127.464,21.18 125.352,22.176 122.832,22.176 C121.272,22.176 119.88,21.834 118.656,21.15 C117.432,20.466 116.478,19.512 115.794,18.288 C115.11,17.064 114.768,15.672 114.768,14.112 C114.768,12.552 115.11,11.16 115.794,9.936 C116.478,8.712 117.432,7.758 118.656,7.074 C119.88,6.39 121.272,6.048 122.832,6.048 C125.352,6.048 127.464,7.032 129.168,9 L129.168,9 L132.912,5.544 C131.712,4.104 130.23,3 128.466,2.232 C126.702,1.464 124.728,1.08 122.544,1.08 C119.952,1.08 117.618,1.638 115.542,2.754 C113.466,3.87 111.834,5.418 110.646,7.398 C109.458,9.378 108.864,11.616 108.864,14.112 C108.864,16.608 109.458,18.846 110.646,20.826 C111.834,22.806 113.466,24.354 115.542,25.47 C117.618,26.586 119.94,27.144 122.508,27.144 Z M142.416,27 C145.296,27 147.264,26.1 148.32,24.3 L148.32,24.3 L148.32,26.712 L153.576,26.712 L153.576,15.66 C153.576,12.78 152.772,10.626 151.164,9.198 C149.556,7.77 147.252,7.056 144.252,7.056 C142.692,7.056 141.174,7.26 139.698,7.668 C138.222,8.076 136.956,8.652 135.9,9.396 L135.9,9.396 L137.916,13.32 C138.612,12.768 139.458,12.33 140.454,12.006 C141.45,11.682 142.464,11.52 143.496,11.52 C144.984,11.52 146.1,11.85 146.844,12.51 C147.588,13.17 147.96,14.112 147.96,15.336 L147.96,15.336 L143.496,15.336 C140.664,15.336 138.57,15.852 137.214,16.884 C135.858,17.916 135.18,19.332 135.18,21.132 C135.18,22.26 135.468,23.268 136.044,24.156 C136.62,25.044 137.454,25.74 138.546,26.244 C139.638,26.748 140.928,27 142.416,27 Z M143.82,23.22 C142.836,23.22 142.062,23.01 141.498,22.59 C140.934,22.17 140.652,21.6 140.652,20.88 C140.652,19.368 141.804,18.612 144.108,18.612 L144.108,18.612 L147.96,18.612 L147.96,20.592 C147.648,21.456 147.12,22.11 146.376,22.554 C145.632,22.998 144.78,23.22 143.82,23.22 Z M164.268,26.712 L164.268,16.992 C164.268,15.312 164.652,14.046 165.42,13.194 C166.188,12.342 167.22,11.916 168.516,11.916 C170.964,11.916 172.188,13.44 172.188,16.488 L172.188,16.488 L172.188,26.712 L177.804,26.712 L177.804,16.992 C177.804,15.312 178.188,14.046 178.956,13.194 C179.724,12.342 180.768,11.916 182.088,11.916 C183.264,11.916 184.17,12.294 184.806,13.05 C185.442,13.806 185.76,14.952 185.76,16.488 L185.76,16.488 L185.76,26.712 L191.376,26.712 L191.376,15.624 C191.376,12.768 190.662,10.626 189.234,9.198 C187.806,7.77 185.88,7.056 183.456,7.056 C182.016,7.056 180.69,7.332 179.478,7.884 C178.266,8.436 177.264,9.216 176.472,10.224 C175.8,9.192 174.912,8.406 173.808,7.866 C172.704,7.326 171.468,7.056 170.1,7.056 C168.852,7.056 167.706,7.272 166.662,7.704 C165.618,8.136 164.736,8.76 164.016,9.576 L164.016,9.576 L164.016,7.344 L158.652,7.344 L158.652,26.712 L164.268,26.712 Z M202.032,33.696 L202.032,24.66 C203.448,26.22 205.392,27 207.864,27 C209.664,27 211.302,26.586 212.778,25.758 C214.254,24.93 215.412,23.766 216.252,22.266 C217.092,20.766 217.512,19.02 217.512,17.028 C217.512,15.036 217.092,13.29 216.252,11.79 C215.412,10.29 214.254,9.126 212.778,8.298 C211.302,7.47 209.664,7.056 207.864,7.056 C205.2,7.056 203.172,7.896 201.78,9.576 L201.78,9.576 L201.78,7.344 L196.416,7.344 L196.416,33.696 L202.032,33.696 Z M206.892,22.392 C205.452,22.392 204.27,21.906 203.346,20.934 C202.422,19.962 201.96,18.66 201.96,17.028 C201.96,15.396 202.422,14.094 203.346,13.122 C204.27,12.15 205.452,11.664 206.892,11.664 C208.332,11.664 209.514,12.15 210.438,13.122 C211.362,14.094 211.824,15.396 211.824,17.028 C211.824,18.66 211.362,19.962 210.438,20.934 C209.514,21.906 208.332,22.392 206.892,22.392 Z" id="Camp" fill="#FFFFFF"></path>
            </g>
        </g>
    </g>
</svg>