<?xml version="1.0" ?><svg id="Layer_1" style="enable-background:new 0 0 100 100;" version="1.1" viewBox="0 0 100 100" xml:space="preserve" xmlns="http://www.w3.org/2000/svg" xmlns:xlink="http://www.w3.org/1999/xlink"><style type="text/css">
	.st0{fill:none;}
	.st1{fill:none;stroke:#000000;stroke-width:0;stroke-linecap:round;stroke-linejoin:round;}
</style><title/><g><path class="st0" d="M62.3,16.9c0.2,3.3,0.3,7.1,0.4,10.7c0,0.8,0,1.5,0,2.3c0.1,0.2,0.2,0.4,0.3,0.6c0.1,0.3,0.2,0.6,0.3,0.9   c0.6,1.3,1.6,2.3,2.8,3.1c0.4,0.2,0.8,0.4,1.2,0.4c0.2,0,0.4,0,0.6-0.1c0.3-0.2,0.5-0.4,0.6-0.7c0.1-0.1,0.2-0.3,0.2-0.4   c-0.1-0.1-0.4-0.2-0.8-0.4c-0.3-0.2-0.6-0.4-0.9-0.6c-0.7-0.6-1.3-1.4-1.7-2.2c-0.4-0.9-0.6-1.9-0.6-2.9c0-0.2,0-0.3,0-0.5   c0.1-1.7,0.3-3.3,0.5-4.7c0.2-1.3,0.3-2.7,0.3-4.1c0-1.8-0.3-3.6-1-5.2C64,11.3,63.1,9.7,62,8.3c-0.3-0.3-0.6-0.6-0.9-0.9   c0.2,0.5,0.4,1.1,0.5,1.7C62,11.6,62.2,14.3,62.3,16.9z"/><path class="st0" d="M50.1,36.2c-0.2,0-0.3,0.1-0.5,0.2c0,0.1-0.1,0.2-0.2,0.2c0,0.5,0,0.9,0,1.3c0,0.3,0,0.6,0,0.9   c0,6.7,0.9,13.4,2.8,19.9c1.2-0.3,2.4-0.5,3.7-0.5c0.7,0,1.4,0.1,2.2,0.2c0.6-2.1,1.1-4.3,1.4-6.5c0.4-2.8,0.5-5.6,0.5-8.4   c0-0.3,0-0.6,0-0.9c0-0.6,0-3.2,0-6.6c-1.5-0.4-3-0.6-4.6-0.6C53.6,35.4,51.8,35.7,50.1,36.2z"/><path class="st0" d="M53.4,61.9c0.3,0.6,0.6,1.3,1,1.8c0.1,0.2,0.3,0.4,0.5,0.6l0.1,0l0.1,0c0.2-0.1,0.3-0.2,0.4-0.4   c0.4-0.5,0.8-1.1,1.1-1.7c0.2-0.3,0.3-0.7,0.5-1c-0.4,0-0.7-0.1-1.1-0.1c-0.9,0-1.8,0.1-2.7,0.3C53.3,61.6,53.3,61.7,53.4,61.9z"/><path class="st0" d="M50.4,18C50,25,49.7,29.8,49.6,33.3c1.9-0.5,3.8-0.8,5.8-0.8c1.5,0,3,0.2,4.5,0.5c-0.1-5-0.2-11.1-0.5-16   c-0.1-2.5-0.3-5-0.6-7.5c-0.1-0.4-0.2-0.8-0.4-1.3c-0.3-0.9-0.8-1.7-1.5-2.4c-0.1-0.2-0.3-0.3-0.5-0.4c-0.1,0-0.1-0.1-0.2-0.1   l-0.1,0c-0.3,0-0.6,0.1-0.8,0.3c-0.3,0.2-0.6,0.4-0.8,0.7c-0.9,0.9-1.5,1.9-2,3c-0.5,1.2-1,2.5-1.3,3.8   C50.8,14.8,50.5,16.4,50.4,18L50.4,18L50.4,18z"/><path class="st0" d="M86.4,37.3c-4.7-6.2-10.8-12.6-17.2-16.8c-0.3-0.2-0.6-0.4-0.9-0.5c-0.1,0.9-0.2,1.8-0.3,2.6   c-0.2,1.5-0.4,2.9-0.5,4.5c0,0.1,0,0.2,0,0.3c0,0.6,0.1,1.2,0.3,1.7c0.2,0.5,0.6,0.9,1,1.3c0.2,0.2,0.5,0.3,0.8,0.5   c0.5,0.3,1,0.6,1.4,1.1c0.4,0.4,0.6,1,0.6,1.6c0,0.4-0.1,0.7-0.2,1.1c-0.1,0.4-0.3,0.7-0.5,1c-0.4,0.6-0.9,1.2-1.6,1.6   c-0.6,0.4-1.3,0.5-2,0.5c-0.7,0-1.4-0.2-2-0.5c-0.6-0.3-1.2-0.6-1.7-1.1c-0.3-0.2-0.6-0.5-0.8-0.7c0,3.7,0.1,6.5,0.1,7.1   c0,0.2,0,0.5,0,0.9c0,2.9-0.2,5.9-0.5,8.8c-0.4,3.9-1.5,7.7-3.2,11.2c-0.3,0.6-0.7,1.2-1.1,1.8c-0.4,0.6-0.9,1.1-1.5,1.5   c-0.1,0-0.2,0.1-0.3,0.1c0,0.4,0,0.9-0.1,1.3c0,0.4-0.2,0.7-0.5,1c0,0.3-0.1,0.6-0.2,0.9c-0.2,0.4-0.5,0.6-0.9,0.7l0.1,1.6   c0,0.1,0,0.2,0,0.3c0,0.3,0,0.6-0.1,0.9c-0.2,0.4-0.5,0.8-0.9,1c-0.3,0.2-0.6,0.3-1,0.3c-0.3,0-0.6-0.1-0.9-0.2   c-0.2-0.1-0.4-0.2-0.5-0.3c-0.1,0-0.1-0.1-0.2-0.1c0,0.1,0,0.2,0,0.4c0,0.7-0.1,1.5-0.1,2.2c0,0.3,0,0.5-0.1,0.8   c-0.1,0.4-0.3,0.8-0.5,1.1c-0.3,0.3-0.6,0.6-1.1,0.7c-0.3,0.1-0.7,0.2-1.1,0.2c-0.7,0-1.4-0.2-2.1-0.6c-0.4-0.3-0.8-0.6-1.1-1   c-0.2-0.2-0.5-0.4-0.7-0.6c-0.1-0.1-0.3-0.1-0.4-0.2c0,0,0,0.1,0,0.1c-0.1,2.1-0.2,4.2-0.3,6.3c0,0.3-0.1,0.7-0.2,1   c-0.2,0.5-0.4,0.8-0.8,1.1c-0.3,0.2-0.7,0.4-1.2,0.4h0c-0.5,0-0.9-0.2-1.3-0.5c-0.2-0.2-0.4-0.4-0.6-0.6c-0.8-1-1.6-2-2.4-3   c0.1,0.8,0.4,1.6,0.8,2.3c0.3,0.6,0,1.4-0.5,1.8c-0.7,0.4-1.6,0.2-2-0.4c-0.8-1.5-1.2-3.1-1.2-4.8c0-0.2,0-0.4,0-0.7   c0-0.3,0.1-0.6,0.2-0.9c0.1-0.4,0.4-0.8,0.7-1c0.3-0.2,0.6-0.4,1-0.4c0.1,0,0.2,0,0.3,0c0.5,0,1,0.2,1.4,0.5   c0.2,0.2,0.5,0.4,0.7,0.7l2.5,3.1c0.1-1.6,0.2-3.3,0.2-4.9c0-0.3,0-0.6,0.1-0.8c0.1-0.4,0.3-0.8,0.6-1.1c0.3-0.3,0.6-0.5,1-0.7   c0.3-0.1,0.7-0.2,1-0.2c0.8,0,1.5,0.2,2.1,0.6c0.4,0.3,0.8,0.6,1.1,1c0.2,0.2,0.4,0.4,0.7,0.6c0.1,0.1,0.2,0.1,0.4,0.1   c0,0,0,0,0-0.1c0-0.7,0.1-1.5,0.1-2.2c0-0.3,0-0.6,0.1-0.8c0.1-0.4,0.2-0.8,0.4-1.1c0.2-0.4,0.5-0.7,0.9-0.9   c0.4-0.2,0.9-0.4,1.3-0.4c0.2,0,0.4,0,0.6,0.1c0.1,0,0.1,0,0.2,0.1c0-0.7-0.1-1.3-0.1-2c0-0.7,0.4-1.3,1.1-1.5   c0.1-0.3,0.3-0.5,0.6-0.7c0-0.2,0-0.4,0-0.6c-0.2-0.1-0.4-0.3-0.6-0.4c-0.5-0.5-1-1.1-1.3-1.7c-0.7-1.3-1.3-2.7-1.7-4.1   c-2.2-7-3.2-14.3-3.2-21.6c0-0.3,0-0.6,0-1c0-1.6,0.1-3.6,0.2-6.2C36.1,40,25,47.8,13.5,55c-1.6,0.9-2.9,2.1-4,3.6   c-0.7,1-1.1,2.3-1.1,3.6c0,1.3,0.3,2.5,0.8,3.6c0.6,1.5,1.4,3,2.4,4.4c5.4,8.3,11.8,16,19.1,22.7c1.2,1.2,2.9,1.8,4.6,1.8   c2.2-0.1,4.3-0.8,6.2-2c2.1-1.2,4-2.6,5.8-4.2c6.9-5.5,13.4-11.5,20.2-17.4c6.2-5.4,12.2-11.4,19-16.5c1-0.7,2-1.5,2.9-2.3   c0.8-0.7,1.5-1.6,2-2.5c0.3-0.6,0.5-1.3,0.5-2c0-0.1,0-0.2,0-0.3c-0.1-1.8-0.7-3.6-1.7-5.2C88.9,40.6,87.7,38.9,86.4,37.3z    M34.1,80.3L34.1,80.3L34.1,80.3L34.1,80.3L34.1,80.3z M23.2,67.9c-0.7,0.4-1.6,0.2-2-0.4c-0.4-0.7-0.2-1.6,0.4-2   c6.8-5,13.5-10.2,20-15.5c0.6-0.5,1.5-0.4,2,0.2c0.5,0.6,0.4,1.5-0.2,2c-6.6,5.4-13.3,10.6-20.1,15.6   C23.3,67.9,23.3,67.9,23.2,67.9z M28.8,76.4c-0.6,0.5-1.5,0.3-2-0.3c-0.5-0.6-0.3-1.5,0.3-2L44,61.8c0.6-0.5,1.5-0.3,2,0.3   c0.5,0.6,0.3,1.5-0.3,2L28.8,76.4z M65.5,46.4l9-7.2c0.6-0.5,1.5-0.4,2,0.2c0.5,0.6,0.4,1.5-0.2,2l-9,7.2v0c-0.6,0.5-1.5,0.4-2-0.2   C64.8,47.8,64.8,46.9,65.5,46.4z M81.3,48L67,59.7l0,0c0,0,0,0,0,0c-0.6,0.5-1.5,0.4-2-0.2c-0.5-0.6-0.4-1.5,0.2-2l14.3-11.7   c0.6-0.5,1.5-0.4,2,0.2C82,46.5,81.9,47.4,81.3,48z"/><path d="M92.4,40.9c-1.1-1.8-2.4-3.6-3.7-5.3c-4.8-6.4-11.1-13-17.9-17.5c-0.8-0.5-1.6-0.9-2.4-1.2c-0.1-1.7-0.5-3.4-1.1-5   c-0.7-2-1.7-3.9-3-5.5c-1.5-1.8-3.5-3-5.7-3.4c-0.2,0-0.4,0-0.6,0c-0.5-0.3-1.1-0.5-1.8-0.5c-0.9,0-1.7,0.3-2.4,0.8   c-0.5,0.3-0.9,0.6-1.3,1c-1.2,1.2-2.1,2.5-2.7,4c-0.9,2.1-1.5,4.2-1.9,6.4c-0.2,1-0.3,2.1-0.4,3.2c-0.2,4-0.4,7.3-0.6,10.1   c-11.2,8.8-22.9,17-35,24.6c-1.9,1.1-3.6,2.6-4.9,4.4c-1.1,1.5-1.6,3.3-1.6,5.2c0,1.6,0.4,3.2,1,4.7c0.7,1.7,1.6,3.4,2.6,4.9   c5.5,8.6,12.1,16.4,19.6,23.2c1.8,1.7,4.1,2.6,6.5,2.6c2.7-0.1,5.3-0.9,7.6-2.4c2.2-1.3,4.3-2.8,6.2-4.4c7-5.6,13.6-11.6,20.3-17.5   c6.3-5.5,12.2-11.4,18.8-16.3c1.5-1,2.9-2.2,4.1-3.5c0.7-0.7,1.2-1.5,1.6-2.4c0.5-1,0.7-2,0.8-3.1c0-0.1,0-0.3,0-0.4   C94.4,45.1,93.7,42.9,92.4,40.9z M62,8.3c1.1,1.4,2,3,2.6,4.7c0.7,1.7,1,3.4,1,5.2c0,1.4-0.1,2.7-0.3,4.1c-0.2,1.4-0.4,3-0.5,4.7   c0,0.2,0,0.3,0,0.5c0,1,0.2,2,0.6,2.9c0.4,0.9,1,1.6,1.7,2.2c0.3,0.2,0.6,0.4,0.9,0.6c0.3,0.2,0.6,0.3,0.8,0.4   c-0.1,0.1-0.1,0.3-0.2,0.4c-0.2,0.3-0.4,0.5-0.6,0.7c-0.2,0.1-0.4,0.1-0.6,0.1c-0.4,0-0.9-0.2-1.2-0.4c-1.2-0.8-2.2-1.8-2.8-3.1   c-0.1-0.3-0.3-0.6-0.3-0.9c0-0.2-0.1-0.4-0.3-0.6c0-0.7,0-1.5,0-2.3c-0.1-3.6-0.2-7.4-0.4-10.7c-0.1-2.6-0.3-5.2-0.7-7.9   c-0.1-0.6-0.3-1.1-0.5-1.7C61.5,7.6,61.8,7.9,62,8.3z M60,42.6c0,0.2,0,0.5,0,0.9c0,2.8-0.2,5.6-0.5,8.4c-0.3,2.2-0.7,4.4-1.4,6.5   c-0.7-0.1-1.4-0.2-2.2-0.2c-1.2,0-2.5,0.2-3.7,0.5c-1.9-6.5-2.8-13.2-2.8-19.9c0-0.3,0-0.6,0-0.9c0-0.4,0-0.9,0-1.3   c0.1-0.1,0.1-0.1,0.2-0.2c0.1-0.1,0.3-0.1,0.5-0.2c1.7-0.5,3.5-0.8,5.3-0.8c1.5,0,3.1,0.2,4.6,0.6C60,39.5,60,42,60,42.6z    M57.1,61.2c-0.2,0.3-0.3,0.7-0.5,1c-0.3,0.6-0.7,1.2-1.1,1.7c-0.1,0.1-0.3,0.3-0.4,0.4l-0.1,0l-0.1,0c-0.2-0.2-0.4-0.3-0.5-0.6   c-0.4-0.6-0.7-1.2-1-1.8c-0.1-0.2-0.1-0.3-0.2-0.5c0.9-0.2,1.8-0.3,2.7-0.3C56.3,61.1,56.7,61.1,57.1,61.2z M51.2,13.2   c0.3-1.3,0.7-2.6,1.3-3.8c0.5-1.1,1.2-2.1,2-3c0.3-0.3,0.5-0.5,0.8-0.7c0.2-0.2,0.5-0.3,0.8-0.3l0.1,0c0.1,0,0.2,0,0.2,0.1   c0.2,0.1,0.3,0.3,0.5,0.4c0.6,0.7,1.1,1.5,1.5,2.4c0.2,0.4,0.3,0.8,0.4,1.3c0.3,2.5,0.6,5,0.6,7.5c0.2,4.9,0.4,11,0.5,16   c-1.5-0.3-3-0.5-4.5-0.5c-2,0-3.9,0.3-5.8,0.8C49.7,29.8,50,25,50.4,18l0,0v0C50.5,16.4,50.8,14.8,51.2,13.2z M91.7,47.8   c0,0.7-0.2,1.4-0.5,2c-0.5,1-1.2,1.8-2,2.5c-0.9,0.8-1.9,1.6-2.9,2.3c-6.8,5.1-12.7,11.1-19,16.5c-6.7,5.9-13.3,11.9-20.2,17.4   c-1.8,1.5-3.8,2.9-5.8,4.2c-1.9,1.2-4,1.9-6.2,2c-1.7,0-3.3-0.7-4.6-1.8c-7.3-6.7-13.7-14.3-19.1-22.7c-0.9-1.4-1.7-2.9-2.4-4.4   c-0.5-1.2-0.8-2.4-0.8-3.6c0-1.3,0.4-2.5,1.1-3.6c1.1-1.5,2.5-2.7,4-3.6C25,47.8,36.1,40,46.7,31.7c-0.1,2.6-0.2,4.6-0.2,6.2   c0,0.3,0,0.7,0,1c0,7.3,1.1,14.6,3.2,21.6c0.4,1.4,1,2.8,1.7,4.1c0.3,0.6,0.8,1.2,1.3,1.7c0.2,0.2,0.4,0.3,0.6,0.4   c0,0.2,0,0.4,0,0.6c-0.3,0.1-0.5,0.4-0.6,0.7c-0.7,0.2-1.1,0.8-1.1,1.5c0,0.7,0.1,1.3,0.1,2c-0.1,0-0.1,0-0.2-0.1   c-0.2,0-0.4-0.1-0.6-0.1c-0.5,0-0.9,0.1-1.3,0.4c-0.4,0.2-0.7,0.5-0.9,0.9c-0.2,0.3-0.4,0.7-0.4,1.1c0,0.3-0.1,0.6-0.1,0.8   c0,0.7-0.1,1.5-0.1,2.2c0,0,0,0,0,0.1c-0.1,0-0.3-0.1-0.4-0.1c-0.2-0.2-0.5-0.4-0.7-0.6c-0.3-0.4-0.7-0.7-1.1-1   c-0.6-0.4-1.4-0.6-2.1-0.6c-0.4,0-0.7,0.1-1,0.2c-0.4,0.1-0.7,0.4-1,0.7c-0.3,0.3-0.5,0.7-0.6,1.1c-0.1,0.3-0.1,0.6-0.1,0.8   c-0.1,1.6-0.2,3.3-0.2,4.9l-2.5-3.1c-0.2-0.2-0.4-0.5-0.7-0.7c-0.4-0.3-0.9-0.5-1.4-0.5c-0.1,0-0.2,0-0.3,0c-0.4,0.1-0.7,0.2-1,0.4   c-0.3,0.3-0.6,0.6-0.7,1c-0.1,0.3-0.2,0.6-0.2,0.9c0,0.2,0,0.5,0,0.7c0,1.7,0.4,3.3,1.2,4.8c0.4,0.7,1.3,0.9,2,0.4   c0.6-0.4,0.8-1.1,0.5-1.8c-0.4-0.7-0.7-1.5-0.8-2.3c0.8,1,1.6,2,2.4,3c0.2,0.2,0.4,0.4,0.6,0.6c0.4,0.3,0.8,0.5,1.3,0.5h0   c0.4,0,0.8-0.1,1.2-0.4c0.4-0.3,0.7-0.7,0.8-1.1c0.1-0.3,0.2-0.6,0.2-1c0.1-2.1,0.2-4.2,0.3-6.3c0,0,0-0.1,0-0.1   c0.1,0,0.3,0.1,0.4,0.2c0.3,0.2,0.5,0.4,0.7,0.6c0.3,0.4,0.7,0.7,1.1,1c0.6,0.4,1.3,0.6,2.1,0.6c0.4,0,0.7-0.1,1.1-0.2   c0.4-0.2,0.8-0.4,1.1-0.7c0.3-0.3,0.4-0.7,0.5-1.1c0.1-0.3,0.1-0.5,0.1-0.8c0-0.7,0.1-1.5,0.1-2.2c0-0.1,0-0.3,0-0.4   c0.1,0,0.1,0.1,0.2,0.1c0.2,0.1,0.3,0.2,0.5,0.3c0.3,0.1,0.6,0.2,0.9,0.2c0.3,0,0.7-0.1,1-0.3c0.4-0.2,0.7-0.6,0.9-1   c0.1-0.3,0.2-0.6,0.1-0.9c0-0.1,0-0.2,0-0.3l-0.1-1.6c0.4-0.1,0.7-0.4,0.9-0.7c0.1-0.3,0.2-0.6,0.2-0.9c0.3-0.3,0.5-0.6,0.5-1   c0-0.4,0-0.9,0.1-1.3c0.1,0,0.2-0.1,0.3-0.1c0.6-0.4,1.1-0.9,1.5-1.5c0.4-0.6,0.8-1.1,1.1-1.8c1.7-3.5,2.8-7.3,3.2-11.2   c0.4-2.9,0.5-5.9,0.5-8.8c0-0.4,0-0.7,0-0.9c0-0.6,0-3.4-0.1-7.1c0.3,0.3,0.5,0.5,0.8,0.7c0.5,0.4,1.1,0.8,1.7,1.1   c0.6,0.3,1.3,0.4,2,0.5c0.7,0,1.4-0.2,2-0.5c0.7-0.4,1.2-0.9,1.6-1.6c0.2-0.3,0.4-0.7,0.5-1c0.1-0.3,0.2-0.7,0.2-1.1   c0-0.6-0.2-1.1-0.6-1.6c-0.4-0.4-0.9-0.8-1.4-1.1c-0.3-0.1-0.5-0.3-0.8-0.5c-0.4-0.3-0.8-0.8-1-1.3c-0.2-0.5-0.3-1.1-0.3-1.7   c0-0.1,0-0.2,0-0.3c0.1-1.6,0.3-3,0.5-4.5c0.1-0.9,0.2-1.7,0.3-2.6c0.3,0.2,0.6,0.3,0.9,0.5c6.4,4.1,12.5,10.6,17.2,16.8   c1.3,1.6,2.4,3.3,3.5,5c1,1.6,1.6,3.3,1.7,5.2C91.7,47.6,91.7,47.7,91.7,47.8z"/><path d="M43.7,50.2c-0.5-0.6-1.4-0.7-2-0.2c-6.5,5.3-13.2,10.5-20,15.5c-0.7,0.4-0.9,1.3-0.4,2c0.4,0.7,1.3,0.9,2,0.4   c0,0,0.1-0.1,0.1-0.1c6.8-5,13.6-10.2,20.1-15.6C44.1,51.7,44.2,50.8,43.7,50.2z"/><path d="M46,62.1c-0.5-0.6-1.4-0.8-2-0.3L27.2,74.1c-0.6,0.5-0.8,1.4-0.3,2c0.5,0.6,1.4,0.8,2,0.3l16.9-12.3   C46.4,63.6,46.5,62.7,46,62.1z"/><polyline class="st1" points="34.1,80.3 34.1,80.3 34.1,80.3  "/><path d="M67.3,48.7L67.3,48.7l9-7.2c0.6-0.5,0.7-1.4,0.2-2c-0.5-0.6-1.4-0.7-2-0.2l-9,7.2c-0.6,0.5-0.7,1.4-0.2,2   C65.7,49.1,66.7,49.2,67.3,48.7z"/><path d="M79.5,45.7L65.2,57.4c-0.6,0.5-0.7,1.4-0.2,2c0.5,0.6,1.4,0.7,2,0.2c0,0,0,0,0,0l0,0L81.3,48c0.6-0.5,0.7-1.4,0.2-2   C81,45.3,80.1,45.3,79.5,45.7z"/></g></svg>