<?xml version="1.0" ?><svg height="100" viewBox="0 0 100 100" width="100" xmlns="http://www.w3.org/2000/svg"><path d="M50 0c27.614 0 50 22.386 50 50s-22.386 50-50 50-50-22.386-50-50 22.386-50 50-50z" fill="#4681A0"/><path d="M65 87h1c1.656 0 3-1.343 3-3v-2.459c4.057-1.274 7-5.063 7-9.541v-44c0-4.478-2.943-8.266-7-9.541v-2.459c0-1.657-1.344-3-3-3h-1v-10.708c-4.735-1.487-9.773-2.292-15-2.292-6.729 0-13.141 1.337-19 3.747v9.253h-1c-1.656 0-3 1.343-3 3v2.459c-4.057 1.275-7 5.063-7 9.541v44c0 4.478 2.943 8.267 7 9.541v2.459c0 1.657 1.344 3 3 3h1v9.253c5.859 2.409 12.271 3.747 19 3.747 5.227 0 10.265-.805 15-2.292v-10.708zm0-72h1c.551 0 1 .449 1 1v2.051c-.329-.033-.662-.051-1-.051h-1v-3zm0 67h1c.338 0 .671-.018 1-.051v2.051c0 .552-.449 1-1 1h-1v-3zm-34 3h-1c-.551 0-1-.448-1-1v-2.051c.329.033.662.051 1 .051h1v3zm0-67h-1c-.338 0-.671.018-1 .051v-2.051c0-.551.449-1 1-1h1v3z" fill="#3F7490"/><path d="M68 15c.551 0 1 .449 1 1v68c0 .552-.449 1-1 1h-36c-.551 0-1-.448-1-1v-68c0-.551.449-1 1-1h36m0-2h-36c-1.656 0-3 1.343-3 3v68c0 1.657 1.344 3 3 3h36c1.656 0 3-1.343 3-3v-68c0-1.657-1.344-3-3-3z" fill="#CCD0D2"/><path d="M67 2.969c-5.308-1.919-11.03-2.969-17-2.969-5.969 0-11.692 1.05-17 2.969v94.062c5.308 1.919 11.031 2.969 17 2.969 5.97 0 11.692-1.05 17-2.969v-94.062z" fill="#EFC75E"/><path d="M33 2.969v94.062c5.308 1.919 11.031 2.969 17 2.969v-100c-5.969 0-11.692 1.05-17 2.969z" fill="#E3BD59"/><path d="M32 18h36c5.523 0 10 4.478 10 10v44c0 5.523-4.477 10-10 10h-36c-5.523 0-10-4.477-10-10v-44c0-5.522 4.477-10 10-10z" fill="#EDEDED"/><path d="M32 18c-5.523 0-10 4.478-10 10v44c0 5.523 4.477 10 10 10h18v-64h-18z" fill="#E1E1E1"/><path d="M32 21h36c3.866 0 7 3.134 7 7v44c0 3.866-3.134 7-7 7h-36c-3.866 0-7-3.134-7-7v-44c0-3.866 3.134-7 7-7z" fill="#324D5B"/><path d="M50 21h-18c-3.866 0-7 3.134-7 7v44c0 3.866 3.134 7 7 7h18v-58z" fill="#2F4956"/><circle cx="50" cy="51" fill="#EDEDED" r="6"/><circle cx="62.5" cy="43.5" fill="#93D3E8" r="4.5"/><circle cx="37.5" cy="43.5" fill="#3DB39E" r="4.5"/><circle cx="50" cy="37" fill="#E2574C" r="5"/><circle cx="62.5" cy="56.5" fill="#26A6D1" r="4.5"/><circle cx="37.5" cy="56.5" fill="#93D3E8" r="4.5"/><circle cx="50" cy="65" fill="#EFC75E" r="5"/><circle cx="61" cy="33" fill="#EFC75E" r="3"/><circle cx="39" cy="33" fill="#26A6D1" r="3"/><circle cx="61" cy="67" fill="#3DB39E" r="3"/><circle cx="39" cy="67" fill="#E2574C" r="3"/><path d="M28 72v-44c0-3.866 3.134-7 7-7h-3c-3.866 0-7 3.134-7 7v44c0 3.866 3.134 7 7 7h3c-3.866 0-7-3.134-7-7z" fill="#2A424D"/></svg>