<?xml version="1.0" ?><svg height="100" viewBox="0 0 100 100" width="100" xmlns="http://www.w3.org/2000/svg"><path d="M50 0c27.614 0 50 22.386 50 50s-22.386 50-50 50-50-22.386-50-50 22.386-50 50-50z" fill="#4681A0"/><path d="M95.827 70h-91.655c7.717 17.656 25.327 30 45.828 30s38.111-12.344 45.827-30z" fill="#3F7490"/><path d="M76 77h-52c-2.209 0-4-1.791-4-4v-24c0-16.568 13.432-30 30-30s30 13.432 30 30v24c0 2.209-1.791 4-4 4z" fill="#EDEDED"/><path d="M80 55h-34c-2.762 0-5-2.238-5-5 0-1.633.795-3.069 2.006-3.982l-.006-.018 22.617-22.617c-.294-.18-.595-.35-.896-.519l-22.428 22.429-.059.059c-1.422 1.15-2.234 2.833-2.234 4.648 0 3.309 2.691 6 6 6h34v-1z" fill="#fff"/><path d="M80 49c0-10.847-5.758-20.348-14.383-25.617l-22.617 22.617.006.018c-1.211.913-2.006 2.349-2.006 3.982 0 2.762 2.238 5 5 5h34v-6z" fill="#93D3E8"/><path d="M46 47c1.657 0 3 1.343 3 3s-1.343 3-3 3-3-1.343-3-3 1.343-3 3-3z" fill="#fff"/><path d="M80 55v-6c0-10.847-5.758-20.348-14.383-25.617l-3.617 3.617c7.286 5.473 12 14.186 12 24v4h6z" fill="#A9DCED"/><path d="M20 70v3c0 2.209 1.791 4 4 4h52c2.209 0 4-1.791 4-4v-8h-60v5z" fill="#EFC75E"/><path d="M30 73v-24c0-14.864 10.813-27.196 25-29.577-1.627-.274-3.296-.423-5-.423-16.568 0-30 13.432-30 30v24c0 2.209 1.791 4 4 4h10c-2.209 0-4-1.791-4-4z" fill="#D5D5D5"/><path d="M30 73v-8h-10v8c0 2.209 1.791 4 4 4h10c-2.209 0-4-1.791-4-4zM76 74h-52c-2.209 0-4-1.791-4-4v3c0 2.209 1.791 4 4 4h52c2.209 0 4-1.791 4-4v-3c0 2.209-1.791 4-4 4z" fill="#D7B354"/><path d="M30.142 74h-6.142c-2.209 0-4-1.791-4-4v3c0 2.209 1.791 4 4 4h10c-1.861 0-3.412-1.278-3.858-3z" fill="#C1A14B"/><path d="M29.5 48c2.485 0 4.5 2.015 4.5 4.5s-2.015 4.5-4.5 4.5-4.5-2.015-4.5-4.5 2.015-4.5 4.5-4.5z" fill="#E2574C"/><path d="M31.5 56c-2.485 0-4.5-2.015-4.5-4.5 0-1.37.626-2.583 1.592-3.408-2.05.42-3.592 2.233-3.592 4.408 0 2.485 2.015 4.5 4.5 4.5 1.115 0 2.122-.421 2.908-1.092-.294.061-.597.092-.908.092z" fill="#CB4E44"/></svg>