<?xml version="1.0" ?><!DOCTYPE svg  PUBLIC '-//W3C//DTD SVG 1.0//EN'  'http://www.w3.org/TR/2001/REC-SVG-20010904/DTD/svg10.dtd'><svg height="64px" style="shape-rendering:geometricPrecision; text-rendering:geometricPrecision; image-rendering:optimizeQuality; fill-rule:evenodd; clip-rule:evenodd" version="1.0" viewBox="0 0 16787 16787" width="64px" xml:space="preserve" xmlns="http://www.w3.org/2000/svg" xmlns:xlink="http://www.w3.org/1999/xlink"><defs><style type="text/css">
   <![CDATA[
    .fil0 {fill:#27afb7;fill-rule:nonzero}
   ]]>
  </style></defs><g id="Layer_x0020_1"><path class="fil0" d="M1574 0l0 15213 524 0 0 -3147 0 -262 262 0 2623 0 262 0 0 262 0 3147 524 0 0 -5770 0 -262 262 0 2623 0 262 0 0 262 0 5770 524 0 0 -8393 0 -262 262 0 2623 0 262 0 0 262 0 8393 524 0 0 -11016 0 -262 262 0 2623 0 262 0 0 262 0 11016 524 0 0 525 -15213 0 0 1050 -525 0 0 -1050 -1050 0 0 -525 1050 0 0 -15213 525 0zm11360 539l1574 524 180 60 0 188 0 1574 -525 0 0 -1065 -10603 7573 -303 -426 10599 -7570 -1086 -362 164 -496zm-10312 14674l2098 0 0 -2885 -2098 0 0 2885zm3672 0l2098 0 0 -5507 -2098 0 0 5507zm3672 0l2098 0 0 -8131 -2098 0 0 8131zm3672 0l2098 0 0 -10754 -2098 0 0 10754z"/></g></svg>